HIERARCHY
ROOT Hips
{
	OFFSET 0.000000 0.000000 0.000000
	CHANNELS 6 Xposition Yposition Zposition Zrotation Yrotation Xrotation 
	JOINT LHipJoint
	{
		OFFSET 0.000000 0.000000 0.000000
		CHANNELS 3 Zrotation Yrotation Xrotation
		JOINT LeftUpLeg
		{
			OFFSET 1.363060 -1.794630 0.839290
			CHANNELS 3 Zrotation Yrotation Xrotation
			JOINT LeftLeg
			{
				OFFSET 2.448110 -6.726130 0.000000
				CHANNELS 3 Zrotation Yrotation Xrotation
				JOINT LeftFoot
				{
					OFFSET 2.562200 -7.039590 0.000000
					CHANNELS 3 Zrotation Yrotation Xrotation
					JOINT LeftToeBase
					{
						OFFSET 0.157640 -0.433110 2.322550
						CHANNELS 3 Zrotation Yrotation Xrotation
						End Site
						{
							OFFSET 0.000000 0.000000 0.000000
						}
					}
				}
			}
		}
	}
	JOINT RHipJoint
	{
		OFFSET 0.000000 0.000000 0.000000
		CHANNELS 3 Zrotation Yrotation Xrotation
		JOINT RightUpLeg
		{
			OFFSET -1.305520 -1.794630 0.839290
			CHANNELS 3 Zrotation Yrotation Xrotation
			JOINT RightLeg
			{
				OFFSET -2.542530 -6.985550 0.000000
				CHANNELS 3 Zrotation Yrotation Xrotation
				JOINT RightFoot
				{
					OFFSET -2.568260 -7.056230 0.000000
					CHANNELS 3 Zrotation Yrotation Xrotation
					JOINT RightToeBase
					{
						OFFSET -0.164730 -0.452590 2.363150
						CHANNELS 3 Zrotation Yrotation Xrotation
						End Site
						{
							OFFSET 0.000000 0.000000 0.000000
						}
					}
				}
			}
		}
	}
}
MOTION
Frames: 22
Frame Time: 0.008333
4.981733 19.777655 0.911649 138.786480 -87.509695 -113.470727 -11.581808 4.626380 4.719500 -5.833678 -0.505479 -14.700579 0.594716 0.419894 26.277936 2.033688 1.669012 41.469238 0.357299 0.000000 -64.932501 11.451036 -4.210201 2.213188 2.395424 -9.578053 -15.923439 0.779276 -1.321951 20.416312 -0.195131 13.250237 35.779694 9.106000 0.000000 -85.755900
4.745498 19.933600 0.901735 144.130054 -87.356790 -119.094039 -11.659064 4.499493 4.423833 -6.132261 0.670325 -15.486232 0.546370 0.457643 27.145892 2.027459 1.440020 41.450924 0.189900 -0.000001 -65.362600 11.366502 -4.146562 2.066372 2.766109 -10.028163 -16.431931 0.890380 -1.327119 19.863715 -0.149993 12.220939 34.937239 8.259701 0.000000 -85.698700
4.512499 20.081952 0.891871 147.974299 -87.232636 -123.182046 -11.728133 4.371690 4.126242 -6.405855 1.826000 -16.233876 0.486267 0.489020 27.560164 2.027810 1.332547 41.620445 0.116599 0.000000 -65.636200 11.286617 -4.068672 1.880269 3.190219 -10.637930 -16.919154 1.020996 -1.313180 19.021845 -0.121208 11.071618 34.303883 7.385500 -0.000000 -85.509700
4.281475 20.222548 0.882006 150.526511 -87.155976 -125.928825 -11.784055 4.245017 3.844042 -6.662105 2.904252 -16.954380 0.416765 0.511905 27.518708 2.029900 1.364811 41.889507 0.150700 0.000000 -65.780700 11.213628 -3.980395 1.671032 3.668424 -11.367702 -17.414515 1.170586 -1.280134 17.935488 -0.105417 9.853182 33.843965 6.505900 0.000000 -85.260500
4.051421 20.354400 0.872220 151.947360 -87.134880 -127.488287 -11.822698 4.122083 3.589060 -6.915672 3.858317 -17.650134 0.339739 0.526175 27.040629 2.028328 1.552990 42.157019 0.305201 0.000000 -65.789801 11.149387 -3.883095 1.449087 4.193204 -12.185917 -17.953733 1.338839 -1.231420 16.698510 -0.095053 8.642071 33.463088 5.650700 -0.000000 -84.711900
3.821655 20.476698 0.862769 152.420405 -87.172936 -128.035058 -11.843658 4.003687 3.370161 -7.175082 4.652615 -18.337200 0.256614 0.532469 26.169211 2.018621 1.905557 42.331566 0.587300 0.000000 -65.772800 11.090960 -3.779201 1.229271 4.768752 -13.034540 -18.565984 1.523091 -1.168754 15.375680 -0.086034 7.468467 33.107893 4.829200 -0.000001 -84.197900
3.591870 20.588373 0.854043 152.103736 -87.267349 -127.732085 -11.847711 3.891300 3.188037 -7.445004 5.276586 -19.024012 0.166141 0.534023 24.974184 1.994110 2.398265 42.300678 0.977600 -0.000000 -65.440900 11.034453 -3.669832 1.017869 5.392768 -13.876194 -19.272501 1.722571 -1.097120 14.066379 -0.069359 6.399835 32.663986 4.070900 0.000000 -83.306701
3.361748 20.688548 0.846425 151.176121 -87.410514 -126.751330 -11.837483 3.783015 3.046130 -7.724726 5.709352 -19.725853 0.067531 0.530740 23.515944 1.953932 3.026883 42.027185 1.470000 0.000000 -65.076800 10.973318 -3.556989 0.827585 6.070859 -14.645667 -20.083814 1.932355 -1.016934 12.799547 -0.045462 5.426042 32.128046 3.370900 -0.000000 -82.617100
3.131237 20.776397 0.840193 149.788241 -87.590715 -125.251401 -11.815673 3.677284 2.940019 -8.010157 5.960495 -20.448489 -0.042851 0.523579 21.871679 1.895066 3.744166 41.460607 2.023299 -0.000000 -64.437800 10.902433 -3.441872 0.661609 6.797532 -15.310880 -20.996263 2.149937 -0.931007 11.622062 -0.011184 4.574828 31.456962 2.744900 0.000000 -81.946599
2.900533 20.851287 0.835465 148.076932 -87.794077 -123.377318 -11.784898 3.569362 2.867384 -8.294706 6.028666 -21.187209 -0.166174 0.509332 20.091250 1.821758 4.532695 40.639906 2.619500 0.000000 -63.876500 10.817763 -3.324648 0.521067 7.563590 -15.845773 -21.995232 2.371052 -0.840094 10.539030 0.031083 3.838393 30.676244 2.191900 0.000000 -81.568300
2.669732 20.912931 0.832212 146.223164 -88.009783 -121.323332 -11.749991 3.455177 2.818226 -8.568965 5.964512 -21.954474 -0.305904 0.486756 18.257522 1.733770 5.306509 39.569269 3.188800 0.000000 -63.053400 10.715717 -3.207711 0.403881 8.360993 -16.249880 -23.061587 2.594117 -0.745924 9.560093 0.081315 3.229471 29.798132 1.721200 0.000000 -81.261301
2.438998 20.961391 0.830116 144.374861 -88.226734 -119.252219 -11.713915 3.330456 2.782891 -8.830112 5.817982 -22.753392 -0.462776 0.453106 16.425437 1.634884 6.001198 38.315558 3.682400 0.000000 -61.994201 10.596599 -3.092154 0.305986 9.176083 -16.534597 -24.170662 2.816696 -0.649294 8.669748 0.136938 2.745801 28.875560 1.333900 0.000000 -81.020700
2.208433 20.996859 0.828644 142.628739 -88.433938 -117.273760 -11.677189 3.192494 2.754734 -9.082318 5.625672 -23.578233 -0.633953 0.405371 14.616896 1.532332 6.590572 36.999367 4.086300 -0.000001 -61.021000 10.464766 -2.977692 0.221838 9.992603 -16.723216 -25.301008 3.036070 -0.551013 7.843045 0.194859 2.380443 27.979913 1.027800 -0.000000 -80.920500
1.978073 21.019797 0.827259 141.158778 -88.624783 -115.574374 -11.641882 3.041501 2.722311 -9.335579 5.455752 -24.438172 -0.818930 0.344708 12.869129 1.427057 7.009105 35.701191 4.361299 -0.000000 -59.980199 10.324240 -2.865635 0.147341 10.801268 -16.842989 -26.435187 3.251141 -0.452160 7.058971 0.254450 2.134639 27.169180 0.803300 0.000000 -80.811300
1.747912 21.030616 0.825435 140.175925 -88.793365 -114.373907 -11.609048 2.879314 2.677346 -9.605486 5.357746 -25.338487 -1.015737 0.273352 11.196725 1.320694 7.229175 34.518049 4.500300 0.000000 -59.128600 10.179651 -2.756340 0.079582 11.595120 -16.917640 -27.562413 3.460808 -0.353429 6.294334 0.315379 2.002843 26.499426 0.656300 -0.000000 -80.730300
1.517824 21.029639 0.822738 139.966823 -88.933545 -113.961747 -11.579750 2.709440 2.614322 -9.909882 5.365286 -26.282444 -1.222825 0.194643 9.598897 1.213574 7.240083 33.536555 4.509000 -0.000000 -58.604200 10.034739 -2.649662 0.017652 12.369219 -16.961967 -28.677382 3.664467 -0.255049 5.529402 0.378622 1.981971 26.011619 0.583401 -0.000000 -80.669500
1.287567 21.017466 0.818889 140.988396 -89.037810 -114.794786 -11.555501 2.536797 2.527228 -10.271726 5.514965 -27.279645 -1.443058 0.113222 8.084997 1.100354 7.005691 32.768530 4.370500 0.000000 -58.133200 9.890773 -2.545357 -0.036689 13.119929 -16.979765 -29.778296 3.862493 -0.156633 4.753504 0.446953 2.075306 25.717068 0.584600 -0.000001 -80.546700
1.057106 20.993852 0.813764 143.816570 -89.094952 -117.444448 -11.537833 2.365432 2.417869 -10.704657 5.800935 -28.330899 -1.674471 0.031679 6.635445 0.983057 6.555762 32.263394 4.111200 -0.000000 -57.960500 9.746925 -2.440865 -0.081583 13.844363 -16.962594 -30.867726 4.055295 -0.056859 3.959550 0.522854 2.279685 25.613626 0.656501 0.000000 -80.442799
0.826223 20.959071 0.807223 148.592991 -89.088297 -122.044822 -11.520100 2.201395 2.296404 -11.211840 6.163541 -29.404952 -1.912650 -0.051796 5.188946 0.867770 5.978273 32.049675 3.788900 -0.000000 -58.309400 9.608692 -2.328248 -0.117965 14.528100 -16.901756 -31.952633 4.242707 0.044459 3.156552 0.609633 2.606261 25.667263 0.804400 -0.000000 -80.438000
0.594756 20.912626 0.799717 156.184945 -89.004318 -129.459317 -11.502386 2.052406 2.151022 -11.815242 6.691797 -30.575382 -2.166679 -0.128601 3.843101 0.742703 5.143440 31.988115 3.307200 -0.000001 -58.617100 9.472332 -2.206060 -0.136956 15.187770 -16.760996 -33.024063 4.428488 0.152402 2.345995 0.711086 3.039912 25.831367 1.016601 -0.000000 -80.454799
0.362667 20.854347 0.791195 165.303811 -88.844302 -138.394060 -11.455186 1.925562 1.991530 -12.505246 7.312248 -31.813915 -2.431720 -0.203683 2.551316 0.613318 4.146243 32.059590 2.724200 -0.000000 -59.126999 9.362698 -2.063996 -0.137864 15.813298 -16.528273 -34.086210 4.611800 0.265741 1.545840 0.827053 3.581368 26.040311 1.292900 0.000000 -80.579800
0.129929 20.784179 0.781895 174.253950 -88.649823 -147.149477 -11.357874 1.815993 1.813419 -13.286900 8.013005 -33.135781 -2.711264 -0.279274 1.351552 0.471553 2.976738 32.161228 2.029301 0.000000 -59.627400 9.295342 -1.907441 -0.110924 16.401185 -16.191638 -35.140300 4.791482 0.382378 0.763536 0.952362 4.208326 26.222879 1.619901 0.000000 -80.803799
